<svg width="504" height="170" viewBox="0 0 504 170" fill="none" xmlns="http://www.w3.org/2000/svg">
<path d="M103.5 161C167.5 146 211 104 224 72M224 72L261 100L267.5 80.5C296.5 112 373.6 160.6 402 169M224 72C185.5 95 116 121 96.5 126" stroke="rgb(172, 172, 172)"/>
<path d="M0.5 113C31.6667 106.167 101.5 85 141 61L169 70.5066M99.5 93C151 89.5 232 39 255.5 1C259 7.33333 269.3 20 282.5 20C287.155 30.6137 296.983 45.7765 308.891 61C328.958 86.6545 354.93 112.481 372 117" stroke="rgb(172, 172, 172)"/>
<path d="M308 60C313.333 57.5 325.7 50.4 332.5 42L362 51C382.5 97.5 453 149.4 503 159" stroke="rgb(172, 172, 172)"/>
</svg>
